<svg width="715" height="371" viewBox="0 0 715 371" fill="none" xmlns="http://www.w3.org/2000/svg">
<path d="M252.99 150.982C243.507 127.048 228.155 106.09 208.677 89.8501C203.192 85.2589 197.365 81.0081 191.241 77.2666C173.211 66.0432 152.713 58.5614 130.769 55.7133C124.347 54.8637 117.755 54.4382 111.08 54.4382H0V165.479C0 249.567 68.425 317.97 152.544 317.97H263.623V206.929C263.622 187.203 259.838 168.327 252.99 150.982Z" fill="#8FC470"/>
<g style="mix-blend-mode:multiply">
<path d="M282.157 252.903C306.1 243.423 327.065 228.076 343.31 208.605C347.903 203.122 352.155 197.296 355.898 191.175C367.126 173.15 374.61 152.66 377.459 130.723C378.309 124.304 378.735 117.714 378.735 111.041V0H267.655C183.538 0 115.111 68.4012 115.111 152.491V263.532H226.191C245.924 263.53 264.806 259.748 282.157 252.903Z" fill="#47B590"/>
</g>
<path d="M714.963 258.953H90.8438V207.683C90.8438 169.781 121.58 139.055 159.495 139.055H646.313C684.228 139.055 714.964 169.781 714.964 207.683V258.953H714.963Z" fill="#676767"/>
<path d="M714.963 258.953H77.3809V302.048H714.963V258.953Z" fill="#8F8F8F"/>
<path d="M714.963 302.048H77.3809V361.285H714.963V302.048Z" fill="#8F8F8F"/>
<path d="M586.766 135.303H611.538V97.0584H586.766V135.303Z" fill="#F8B59D"/>
<path d="M608.46 60.6243L611.517 78.403L613.232 88.3746L613.891 92.2081C616.495 107.341 606.333 121.717 591.195 124.318C576.057 126.92 561.676 116.762 559.074 101.629L558.415 97.7958L556.7 87.8242L553.643 70.0455L608.46 60.6243Z" fill="#F8B59D"/>
<path d="M565.757 90.8233C565.951 91.9515 565.194 93.0235 564.066 93.217C562.937 93.4105 561.864 92.6529 561.671 91.526C561.477 90.3978 562.234 89.3258 563.363 89.1323C564.491 88.9387 565.564 89.695 565.757 90.8233Z" fill="#514949"/>
<path d="M579.729 88.2894C579.922 89.4176 579.166 90.4896 578.037 90.6831C576.908 90.8767 575.836 90.119 575.643 88.9921C575.449 87.8639 576.206 86.792 577.334 86.5984C578.463 86.4035 579.535 87.1612 579.729 88.2894Z" fill="#514949"/>
<path d="M580.843 106.035C581.231 109.649 578.747 112.989 575.114 113.612C571.481 114.236 568.023 111.918 567.182 108.382C571.735 107.6 576.289 106.818 580.843 106.035Z" fill="white"/>
<path d="M553.175 67.3334L554.336 74.0754L609.152 64.6542L606.476 49.0922C602.452 46.7588 597.616 45.7679 592.672 46.6188L564.381 51.4818C556.909 52.7651 551.89 59.8626 553.175 67.3334Z" fill="#514949"/>
<path d="M592.673 46.6188L598.611 81.1467C600.536 92.3413 611.176 99.8546 622.374 97.9303L616.436 63.4024C615.361 57.1504 611.567 52.0458 606.476 49.0921C602.452 46.7588 597.617 45.7691 592.673 46.6188Z" fill="#514949"/>
<path d="M600.818 91.2227C600.453 91.2858 600.086 91.3489 599.721 91.4107C598.997 87.2052 598.275 82.9997 597.552 78.7955C597.917 78.7324 598.284 78.6692 598.649 78.6075C601.101 78.1861 603.452 79.8469 603.873 82.2983C604.086 83.5322 604.297 84.7661 604.51 86.0001C604.93 88.4501 603.269 90.8013 600.818 91.2227Z" fill="#F8B59D"/>
<path d="M637.07 107.557C643.417 101.212 643.417 90.9256 637.07 84.5808C630.723 78.236 620.433 78.2361 614.086 84.5808C607.739 90.9256 607.739 101.212 614.086 107.557C620.433 113.902 630.723 113.902 637.07 107.557Z" fill="#514949"/>
<path d="M547.795 230.589C532.866 233.257 522.928 247.52 525.597 262.443L528.334 277.738L528.952 281.19L542.792 358.558L559.464 352.439L551.64 229.903L547.795 230.589Z" fill="#3D3535"/>
<path d="M559.463 369.629C547.457 369.629 535.453 369.629 523.448 369.629C523.448 360.135 531.147 352.439 540.644 352.439C546.917 352.439 553.189 352.439 559.463 352.439C559.463 358.168 559.463 363.9 559.463 369.629Z" fill="#A3DAC7"/>
<path d="M569.232 232.21C556.788 223.544 539.672 226.603 531.002 239.044L522.119 251.792L520.114 254.669L475.174 319.16L491.292 326.619L572.435 234.441L569.232 232.21Z" fill="#514949"/>
<path d="M481.998 340.993C471.922 334.47 461.846 327.945 451.771 321.421C456.933 313.452 467.581 311.178 475.553 316.338C480.817 319.748 486.083 323.157 491.347 326.565C488.23 331.375 485.113 336.184 481.998 340.993Z" fill="#A3DAC7"/>
<path d="M602.203 258.953H567.16V227.6H629.663V231.502C629.663 246.663 617.369 258.953 602.203 258.953Z" fill="#514949"/>
<path d="M587.526 258.953H525.022V255.051C525.022 239.89 537.317 227.6 552.483 227.6H587.526V258.953Z" fill="#514949"/>
<path d="M491.115 176.28L488.968 160.721L535.994 154.234C542.796 153.295 549.444 151.461 555.764 148.777L599.458 130.224L605.601 144.681L558.359 164.741C553.116 166.967 547.602 168.489 541.958 169.268L491.115 176.28Z" fill="#35886C"/>
<path d="M492.072 176.144C483.098 177.386 474.125 178.628 465.151 179.869C464.347 174.059 463.542 168.249 462.737 162.439C471.711 161.197 480.684 159.956 489.658 158.714C490.463 164.525 491.268 170.335 492.072 176.144Z" fill="#F8B59D"/>
<path d="M485.19 162.712C484.878 160.463 484.566 158.214 484.255 155.965C483.878 153.244 485.779 150.733 488.5 150.356C489.039 154.248 489.578 158.139 490.116 162.03C488.475 162.258 486.833 162.484 485.19 162.712Z" fill="#F8B59D"/>
<path d="M593.205 129.299C600.781 129.299 608.358 129.299 615.934 129.299C623.517 129.299 629.664 135.444 629.664 143.024C629.664 147.16 629.664 151.297 629.664 155.432C629.664 166.334 629.664 177.235 629.664 188.137C629.664 201.292 629.664 214.445 629.664 227.6C608.83 227.6 587.996 227.6 567.161 227.6C567.161 214.445 567.161 201.292 567.161 188.137C567.161 177.235 567.161 166.334 567.161 155.432C567.161 153.778 567.161 152.124 567.161 150.47C567.16 138.778 578.821 129.299 593.205 129.299Z" fill="#47B590"/>
<path d="M613.666 198.057C596.563 198.057 579.461 198.059 562.357 198.058C562.357 203.389 562.355 208.717 562.355 214.048C579.458 214.048 596.562 214.048 613.666 214.048C622.501 214.048 629.663 206.889 629.663 198.057C629.663 179.76 629.663 161.464 629.663 143.168C626.619 143.168 623.575 143.168 620.531 143.168C616.74 143.168 613.666 146.241 613.666 150.031C613.666 166.039 613.666 182.049 613.666 198.057Z" fill="#35886C"/>
<path d="M565.07 220.077L555.905 229.239C551.758 225.091 547.608 220.944 543.459 216.796C549.75 210.507 556.041 204.218 562.333 197.929C563.246 198.842 564.157 199.753 565.07 200.666C570.432 206.026 570.432 214.717 565.07 220.077Z" fill="#F8B59D"/>
<path d="M561.182 203.813C559.576 202.207 557.971 200.603 556.364 198.997C554.422 197.055 554.422 193.906 556.364 191.964C559.143 194.742 561.922 197.519 564.7 200.297C563.527 201.469 562.355 202.641 561.182 203.813Z" fill="#F8B59D"/>
<path d="M714.962 369.88H646.395V214.634C646.395 199.473 658.689 187.183 673.855 187.183H687.502C702.668 187.183 714.962 199.473 714.962 214.634V369.88Z" fill="#737373"/>
<path d="M146.002 369.88H77.4346V214.635C77.4346 199.473 89.7287 187.183 104.895 187.183H118.542C133.708 187.183 146.002 199.473 146.002 214.635V369.88Z" fill="#737373"/>
<path d="M419.47 182.805H435.956V144.56H419.47V182.805Z" fill="#E09870"/>
<path d="M429.452 167.088C435.837 165.221 442.22 163.354 448.605 161.488C461.225 157.798 468.465 144.579 464.773 131.961C461.874 122.052 458.975 112.143 456.075 102.233C442.073 106.326 428.072 110.421 414.07 114.514C419.197 132.038 424.325 149.563 429.452 167.088Z" fill="#E09870"/>
<path d="M464.814 108.881C461.84 98.7154 451.186 92.8848 441.017 95.8578C440.439 96.0266 439.859 96.1954 439.281 96.3656C433.277 98.1211 427.273 99.8766 421.269 101.632C413.578 103.88 408.368 110.521 407.571 118.02C407.326 120.328 407.5 122.716 408.147 125.081C408.145 125.081 408.144 125.082 408.143 125.082C410.36 132.661 412.577 140.241 414.795 147.819C417.023 155.433 425.003 159.8 432.621 157.573C434.947 156.894 437.273 156.213 439.599 155.534C436.07 143.472 432.541 131.411 429.013 119.349C440.944 115.86 452.88 112.371 464.814 108.881Z" fill="#514949"/>
<path d="M453.99 124.401C454.284 125.408 455.338 125.984 456.343 125.69C457.35 125.397 457.926 124.342 457.632 123.338C457.339 122.332 456.284 121.755 455.279 122.049C454.273 122.343 453.696 123.397 453.99 124.401Z" fill="#514949"/>
<path d="M442.957 127.616C443.25 128.622 444.305 129.198 445.31 128.905C446.316 128.611 446.893 127.557 446.599 126.552C446.305 125.546 445.251 124.97 444.246 125.263C443.239 125.557 442.663 126.611 442.957 127.616Z" fill="#514949"/>
<path d="M448.89 142.67C450.025 145.797 453.41 147.544 456.649 146.597C459.886 145.65 461.796 142.354 461.067 139.11C457.008 140.297 452.95 141.484 448.89 142.67Z" fill="white"/>
<path d="M431.994 131.697C432.32 131.602 432.646 131.506 432.972 131.411C434.069 135.16 435.165 138.908 436.262 142.655C435.936 142.75 435.61 142.846 435.284 142.941C433.098 143.579 430.787 142.315 430.147 140.13C429.826 139.03 429.503 137.929 429.182 136.83C428.544 134.646 429.81 132.336 431.994 131.697Z" fill="#E09870"/>
<path d="M501.306 222.137C488.632 221.816 475.959 221.493 463.286 221.172C463.092 213.537 462.897 205.9 462.703 198.264C462.624 195.113 460.003 192.494 456.852 192.414C456.223 192.398 455.595 192.383 454.966 192.366C451.814 192.287 449.325 194.775 449.404 197.927C449.598 205.562 449.793 213.199 449.986 220.835L450.034 222.719C450.195 229.02 455.435 234.258 461.738 234.419C462.367 234.435 462.994 234.45 463.623 234.467C476.298 234.788 488.971 235.11 501.644 235.432L501.306 222.137Z" fill="#8FC470"/>
<path d="M501.394 235.425C502.986 235.465 504.577 235.506 506.167 235.546C513.444 235.731 519.193 229.983 519.009 222.708L519.006 222.575C513.023 222.422 507.04 222.271 501.057 222.119C501.169 226.554 501.282 230.989 501.394 235.425Z" fill="#E09870"/>
<path d="M504.066 225.546C505.366 224.245 506.668 222.945 507.97 221.644C509.543 220.071 509.477 217.452 507.821 215.797C505.57 218.047 503.319 220.298 501.067 222.549C502.067 223.548 503.067 224.547 504.066 225.546Z" fill="#E09870"/>
<path d="M411.665 236.736C411.665 232.99 411.665 229.243 411.665 225.497C411.665 215.52 411.665 205.541 411.665 195.564V185.37C411.665 177.79 417.812 171.645 425.395 171.645C430.609 171.645 435.821 171.645 441.034 171.645C452.621 171.645 462.014 180.321 462.014 191.023C462.014 192.537 462.014 194.05 462.014 195.563C462.014 205.54 462.014 215.519 462.014 225.496C462.014 229.241 462.014 232.988 462.014 236.734H411.665V236.736Z" fill="#8FC470"/>
<path d="M472.088 174.297C462.898 183.027 453.71 191.758 444.52 200.489C438.981 195.227 433.442 189.964 427.905 184.702C425.62 182.531 421.914 182.531 419.63 184.702C419.174 185.134 418.718 185.568 418.263 186C415.979 188.172 415.979 191.692 418.263 193.864C423.802 199.126 429.341 204.389 434.878 209.651L436.245 210.949C440.815 215.292 448.226 215.292 452.797 210.949C453.252 210.517 453.708 210.083 454.163 209.651C463.352 200.92 472.542 192.189 481.731 183.458L472.088 174.297Z" fill="#6B9354"/>
<path d="M481.549 183.63C482.702 182.533 483.856 181.438 485.01 180.341C490.287 175.329 490.287 167.201 485.01 162.187L484.914 162.095C480.576 166.216 476.238 170.338 471.899 174.46C475.115 177.517 478.332 180.573 481.549 183.63Z" fill="#E09870"/>
<path d="M476.451 174.756C476.451 172.917 476.451 171.078 476.451 169.239C476.451 167.014 474.552 165.209 472.21 165.21C472.21 168.393 472.21 171.575 472.21 174.758C473.624 174.756 475.037 174.756 476.451 174.756Z" fill="#E09870"/>
<path d="M476.11 352.439C485.126 352.439 494.14 352.439 503.155 352.439C503.155 345.31 497.373 339.53 490.242 339.53C485.531 339.53 480.821 339.53 476.11 339.53C476.11 343.833 476.11 348.136 476.11 352.439Z" fill="#E09870"/>
<path d="M488.554 258.953V339.53H476.131L470.491 258.953L469.789 248.931H484.931C487.194 251.647 488.554 255.141 488.554 258.953Z" fill="#036081"/>
<path d="M428.315 346.632C436.882 349.441 445.447 352.25 454.013 355.058C456.236 348.283 452.544 340.991 445.768 338.768C441.292 337.301 436.816 335.834 432.341 334.365C431 338.455 429.657 342.544 428.315 346.632Z" fill="#E09870"/>
<path d="M432.358 334.373L444.164 338.244L472.414 252.157L454.582 246.31L432.358 334.373Z" fill="#036081"/>
<path d="M462.014 236.735H411.665V258.953H462.014V236.735Z" fill="#036081"/>
<path d="M488.555 258.953H442.876V243.276H472.874C477.722 243.276 482.056 245.474 484.932 248.931C487.195 251.647 488.555 255.141 488.555 258.953Z" fill="#036081"/>
<path d="M194.403 138.281H219.175V100.036H194.403V138.281Z" fill="#996E4B"/>
<path d="M195.057 117.09C202.306 117.595 209.556 118.101 216.805 118.606C231.139 119.606 243.569 108.801 244.568 94.4729C245.354 83.2193 246.139 71.9671 246.924 60.7135C231.025 59.6045 215.124 58.4955 199.222 57.3865C197.836 77.2885 196.446 97.1892 195.057 117.09Z" fill="#996E4B"/>
<path d="M238.489 83.0175C238.409 84.1595 239.27 85.1491 240.412 85.2287C241.555 85.3083 242.544 84.4464 242.624 83.3058C242.704 82.1638 241.843 81.1728 240.7 81.0946C239.558 81.015 238.568 81.8769 238.489 83.0175Z" fill="#514949"/>
<path d="M225.441 82.1666C225.361 83.3085 226.222 84.2981 227.364 84.3777C228.507 84.4573 229.497 83.5954 229.576 82.4548C229.656 81.3129 228.795 80.3219 227.653 80.2437C226.51 80.1627 225.52 81.0246 225.441 82.1666Z" fill="#514949"/>
<path d="M189.147 65.9718C189.146 65.9718 189.144 65.9718 189.143 65.9718C188.542 74.5778 187.942 83.185 187.342 91.7923C186.737 100.439 193.261 107.938 201.911 108.542C204.551 108.726 207.193 108.909 209.834 109.093C209.832 109.129 209.813 109.421 209.834 109.093C209.189 118.344 216.236 125.384 225.49 126.029L242.228 127.196C242.951 116.863 243.671 106.532 244.391 96.201C233.227 95.4227 222.061 94.6445 210.896 93.8649C211.499 85.2439 212.1 76.6229 212.701 68.0005C226.255 68.9462 239.809 69.8919 253.362 70.8362C254.167 59.2916 245.459 49.2816 233.911 48.4759C233.254 48.4306 232.598 48.3839 231.94 48.3386C225.122 47.8624 218.302 47.3861 211.483 46.9126C202.752 46.3031 194.895 51.1345 191.235 58.5175C190.108 60.7891 189.382 63.3022 189.147 65.9718Z" fill="#514949"/>
<path d="M211.118 77.729C211.489 77.7551 211.86 77.7812 212.229 77.8059C211.932 82.0622 211.634 86.3185 211.338 90.5748C210.967 90.5487 210.598 90.5226 210.227 90.4979C207.746 90.3249 205.857 88.1536 206.03 85.672C206.116 84.423 206.204 83.1739 206.29 81.9249C206.463 79.4447 208.636 77.5561 211.118 77.729Z" fill="#996E4B"/>
<path d="M225.602 99.4292C225.58 103.064 228.386 106.137 232.063 106.392C235.74 106.649 238.946 103.994 239.43 100.393C234.82 100.072 230.211 99.7504 225.602 99.4292Z" fill="white"/>
<path d="M245.332 227.6H182.829V258.953H245.332V227.6Z" fill="#3A3A3A"/>
<path d="M210 228H183V259H210V228Z" fill="#514949"/>
<path d="M245.905 228C261.071 228 273.365 240.29 273.365 255.451V270.988V274.495V353.09H256.428L242 228H245.905Z" fill="#3A3A3A"/>
<path d="M256.426 370.28C268.43 370.28 280.436 370.28 292.44 370.28C292.44 360.786 284.742 353.09 275.245 353.09C268.971 353.09 262.699 353.09 256.426 353.09C256.426 358.819 256.426 364.55 256.426 370.28Z" fill="#3A3A3A"/>
<path d="M208.905 228C224.071 228 236.365 240.29 236.365 255.451V270.988V274.495V353.09H219.428L205 228H208.905Z" fill="#514949"/>
<path d="M219.427 370.28C231.431 370.28 243.437 370.28 255.441 370.28C255.441 360.786 247.743 353.09 238.246 353.09C231.972 353.09 225.7 353.09 219.427 353.09C219.427 358.819 219.427 364.55 219.427 370.28Z" fill="#3A3A3A"/>
<path d="M219.289 129.299C211.712 129.299 204.136 129.299 196.559 129.299C188.976 129.299 182.829 135.444 182.829 143.024C182.829 147.16 182.829 151.297 182.829 155.432C182.829 166.334 182.829 177.235 182.829 188.137C182.829 201.292 182.829 214.445 182.829 227.6C203.663 227.6 224.498 227.6 245.332 227.6C245.332 214.445 245.332 201.292 245.332 188.137C245.332 177.235 245.332 166.334 245.332 155.432C245.332 153.778 245.332 152.124 245.332 150.47C245.332 138.778 233.672 129.299 219.289 129.299Z" fill="#F5A069"/>
<path d="M151.806 168.11C139.713 156.021 127.618 143.933 115.524 131.843C111.752 135.612 107.983 139.38 104.213 143.149C116.307 155.238 128.4 167.328 140.494 179.417C146.741 185.662 156.87 185.662 163.117 179.417C176.059 166.48 189.002 153.542 201.942 140.606C199.79 138.453 197.637 136.303 195.485 134.151C192.804 131.47 188.458 131.47 185.776 134.151C174.453 145.471 163.13 156.791 151.806 168.11Z" fill="#F5A069"/>
<path d="M102.962 150.425H90.001C90.001 144.56 90.001 138.695 90.001 132.829C98.8982 132.829 107.795 132.829 116.693 132.829C116.693 134.119 116.693 135.409 116.693 136.699C116.693 144.28 110.546 150.425 102.962 150.425Z" fill="#996E4B"/>
<path d="M111.719 136.176C111.719 133.906 111.719 131.636 111.719 129.364C111.719 126.618 113.946 124.392 116.693 124.392C116.693 128.32 116.693 132.248 116.693 136.176C115.035 136.176 113.377 136.176 111.719 136.176Z" fill="#996E4B"/>
<path d="M330.16 123.045V139.037H260.12C260.12 132.552 263.982 126.968 269.534 124.458H269.535C270.125 124.191 270.735 123.96 271.361 123.765L271.364 123.763C272.866 123.297 274.463 123.045 276.119 123.045H330.16Z" fill="#F5A069"/>
<path d="M327.648 139.037H354.34C354.34 133.172 354.34 127.307 354.34 121.441C345.443 121.441 336.546 121.441 327.648 121.441C327.648 127.307 327.648 133.172 327.648 139.037Z" fill="#F6A284"/>
<path d="M332.623 124.789C332.623 122.518 332.623 120.248 332.623 117.978C332.623 115.231 330.396 113.005 327.648 113.005C327.648 116.933 327.648 120.862 327.648 124.79C329.307 124.789 330.964 124.789 332.623 124.789Z" fill="#F6A284"/>
<path d="M287.17 134.871L276.193 139.037L231.437 156.02L225.76 141.07L269.533 124.458H269.535L271.361 123.765L271.364 123.763C272.866 123.297 274.463 123.045 276.118 123.045H282.679L287.17 134.871Z" fill="#F5A069"/>
<path d="M371.048 141.541H354.562V179.785H371.048V141.541Z" fill="#E09870"/>
<path d="M378.708 116.589C377.57 121.974 376.432 127.358 375.294 132.743C374.655 135.762 374.017 138.782 373.378 141.803C373.132 142.964 372.887 144.125 372.642 145.286C369.735 159.035 356.23 167.826 342.477 164.921C328.723 162.015 319.929 148.515 322.835 134.766C323.081 133.605 323.327 132.443 323.571 131.282C324.21 128.263 324.848 125.243 325.487 122.222C326.625 116.837 327.763 111.453 328.902 106.068L378.708 116.589Z" fill="#E09870"/>
<path d="M333.559 128.062C333.342 129.087 332.336 129.742 331.31 129.525C330.284 129.308 329.629 128.302 329.846 127.277C330.063 126.252 331.07 125.597 332.095 125.814C333.121 126.031 333.776 127.037 333.559 128.062Z" fill="#514949"/>
<path d="M345.826 130.653C345.609 131.679 344.602 132.333 343.576 132.116C342.551 131.9 341.896 130.894 342.113 129.868C342.33 128.843 343.336 128.188 344.362 128.405C345.386 128.622 346.042 129.628 345.826 130.653Z" fill="#514949"/>
<path d="M340.781 146.066C339.887 149.269 336.645 151.269 333.345 150.572C330.044 149.875 327.888 146.734 328.367 143.443C332.506 144.317 336.644 145.192 340.781 146.066Z" fill="white"/>
<path d="M329.421 103.603C328.99 105.646 328.557 107.687 328.126 109.729C344.729 113.236 361.331 116.743 377.934 120.25L380.923 106.109C378.29 102.765 374.512 100.287 370.02 99.3387C361.451 97.5283 352.883 95.7192 344.314 93.9088C337.526 92.4745 330.857 96.8145 329.421 103.603Z" fill="#514949"/>
<path d="M370.02 99.3386C367.809 109.796 365.599 120.254 363.388 130.711C361.238 140.883 367.744 150.87 377.919 153.019C380.13 142.562 382.34 132.104 384.551 121.647C385.752 115.966 384.251 110.342 380.922 106.109C378.288 102.765 374.513 100.288 370.02 99.3386Z" fill="#514949"/>
<path d="M388.808 181.347C391.042 170.895 393.276 160.442 395.51 149.99C397.683 139.824 391.2 129.82 381.03 127.649C378.796 138.101 376.562 148.554 374.328 159.006C372.154 169.173 378.638 179.176 388.808 181.347Z" fill="#514949"/>
<path d="M361.855 140.027C361.523 139.957 361.191 139.887 360.858 139.817C361.666 135.995 362.474 132.174 363.282 128.354C363.614 128.424 363.946 128.494 364.279 128.564C366.53 129.041 367.975 131.29 367.457 133.541C367.231 134.615 367.004 135.687 366.776 136.761C366.339 139.029 364.107 140.503 361.855 140.027Z" fill="#E09870"/>
<path d="M336.434 352.439C327.419 352.439 318.405 352.439 309.39 352.439C309.39 345.31 315.171 339.53 322.303 339.53C327.014 339.53 331.723 339.53 336.434 339.53C336.434 343.833 336.434 348.136 336.434 352.439Z" fill="#E09870"/>
<path d="M336.415 339.53H323.99V248.931H342.757L336.415 339.53Z" fill="#E09870"/>
<path d="M384.23 346.632C375.664 349.441 367.099 352.25 358.532 355.058C356.31 348.283 360.002 340.991 366.778 338.768C371.254 337.301 375.73 335.834 380.204 334.365C381.547 338.455 382.889 342.544 384.23 346.632Z" fill="#E09870"/>
<path d="M380.187 334.374L368.382 338.244L340.133 252.158L357.964 246.31L380.187 334.374Z" fill="#E09870"/>
<path d="M384.279 258.953L318.447 281.101V250.461C318.447 242.88 324.594 236.735 332.178 236.735H384.279V258.953Z" fill="#F2BF5E"/>
<path d="M384.279 236.735C384.279 232.99 384.279 229.243 384.279 225.497C384.279 215.52 384.279 205.541 384.279 195.564V185.37C384.279 177.79 378.132 171.645 370.548 171.645C365.335 171.645 360.123 171.645 354.91 171.645C343.323 171.645 333.93 180.321 333.93 191.022C333.93 192.536 333.93 194.05 333.93 195.563C333.93 205.54 333.93 215.518 333.93 225.496C333.93 229.241 333.93 232.988 333.93 236.734H384.279V236.735Z" fill="#BCBE51"/>
<path d="M331.656 213.968C344.652 213.968 357.648 213.968 370.643 213.968C370.643 206.137 370.643 198.308 370.643 190.478C370.643 187.247 373.263 184.628 376.495 184.628H384.279C384.279 194.407 384.279 204.188 384.279 213.968V215.9C384.279 222.362 379.038 227.6 372.575 227.6C371.931 227.6 371.287 227.6 370.643 227.6C357.648 227.6 344.652 227.6 331.656 227.6V213.968Z" fill="#999942"/>
<path d="M331.911 227.6C330.28 227.6 328.649 227.6 327.016 227.6C319.554 227.6 313.506 221.552 313.506 214.094V213.958C319.641 213.958 325.777 213.958 331.911 213.958C331.911 218.504 331.911 223.052 331.911 227.6Z" fill="#E09870"/>
<path d="M328.912 217.395C327.543 216.026 326.174 214.658 324.805 213.29C323.15 211.634 323.15 208.949 324.805 207.294C327.174 209.662 329.542 212.03 331.911 214.397C330.911 215.396 329.912 216.396 328.912 217.395Z" fill="#E09870"/>
<path d="M297.075 165.209C306.265 174.395 315.453 183.581 324.643 192.767C330.182 187.23 335.721 181.693 341.258 176.158C343.543 173.874 347.249 173.874 349.533 176.158C349.989 176.613 350.445 177.068 350.9 177.523C353.184 179.807 353.184 183.512 350.9 185.796C345.361 191.333 339.822 196.87 334.285 202.405L332.918 203.771C328.348 208.34 320.937 208.34 316.366 203.771C315.911 203.315 315.455 202.859 315 202.405C305.811 193.219 296.621 184.033 287.433 174.847L297.075 165.209Z" fill="#BCBE51"/>
<path d="M287.613 175.028C286.46 173.875 285.306 172.722 284.152 171.568C278.875 166.293 278.875 157.742 284.152 152.467L284.248 152.371C288.587 156.709 292.924 161.045 297.263 165.382C294.046 168.598 290.83 171.812 287.613 175.028Z" fill="#E09870"/>
<path d="M292.712 165.693C292.712 163.758 292.712 161.823 292.712 159.888C292.712 157.546 294.611 155.648 296.953 155.648C296.953 158.995 296.953 162.344 296.953 165.692C295.539 165.693 294.125 165.693 292.712 165.693Z" fill="#E09870"/>
</svg>
