<svg width="225" height="52" viewBox="0 0 225 52" fill="none" xmlns="http://www.w3.org/2000/svg">
<g clip-path="url(#clip-logo)">
<path d="M85.9834 16.1198H89.8996V39.5963H85.9834V16.1198Z" fill="#585857"/>
<path d="M94.2236 36.5457L107.304 19.7755H94.6309V16.1198H112.379V19.1704L99.2912 35.9322H112.379V39.588H94.2236V36.5457Z" fill="#585857"/>
<path d="M119.952 16.1198H136.4V19.8087H123.868V25.9099H134.99V29.5989H123.868V35.9322H136.572V39.6212H119.968L119.952 16.1198Z" fill="#90C370"/>
<path d="M139.948 21.8894H143.778V24.6416C144.316 23.6816 145.082 22.8877 146 22.3393C146.918 21.7908 147.956 21.5071 149.01 21.5164C152.785 21.5164 154.971 24.2022 154.971 28.3305V39.5963H151.164V29.5325C151.164 26.7886 149.864 25.2053 147.585 25.2053C145.306 25.2053 143.81 26.8632 143.81 29.5988V39.5963H139.98L139.948 21.8894Z" fill="#90C370"/>
<path d="M157.885 30.8092V30.7429C157.885 25.6778 161.276 21.5164 166.062 21.5164C171.38 21.5164 174.074 25.9431 174.074 31.0413C174.074 31.4143 174.074 31.7791 174.011 32.1853H161.715C161.829 33.4411 162.391 34.6039 163.285 35.4382C164.179 36.2724 165.34 36.7157 166.531 36.6783C167.385 36.6828 168.23 36.4969 169.012 36.1327C169.793 35.7685 170.493 35.2341 171.066 34.5644L173.314 36.6783C172.493 37.7533 171.447 38.6122 170.26 39.1876C169.072 39.7629 167.774 40.039 166.469 39.9942C165.325 40.0292 164.186 39.8149 163.123 39.3644C162.06 38.9139 161.096 38.2369 160.291 37.3755C159.486 36.5141 158.857 35.4867 158.443 34.3571C158.029 33.2275 157.839 32.0198 157.885 30.8092ZM170.275 29.4994C170.025 26.8881 168.56 24.8406 166.03 24.8406C163.68 24.8406 162.036 26.7555 161.683 29.4994H170.275Z" fill="#90C370"/>
<path d="M177.152 21.8894H180.982V25.8768C182.032 23.2324 183.966 21.4169 186.911 21.5495V25.8436H186.692C183.332 25.8436 180.982 28.1565 180.982 32.8567V39.5963H177.152V21.8894Z" fill="#90C370"/>
<path d="M188.94 42.9204L190.366 39.8698C192.136 41.0918 194.205 41.7427 196.318 41.7433C199.741 41.7433 201.613 39.8698 201.613 36.3135V34.9374C200.958 35.9508 200.078 36.7776 199.049 37.3444C198.02 37.9113 196.875 38.2007 195.715 38.187C194.694 38.2003 193.68 37.9932 192.737 37.5782C191.793 37.1632 190.94 36.5491 190.228 35.7733C189.516 34.9976 188.962 34.0764 188.597 33.0661C188.233 32.0559 188.067 30.9776 188.11 29.8973V29.8309C188.072 28.7518 188.241 27.6756 188.607 26.6675C188.972 25.6593 189.527 24.7401 190.238 23.9653C190.949 23.1905 191.801 22.5763 192.742 22.1596C193.684 21.743 194.695 21.5326 195.715 21.5412C196.848 21.5218 197.97 21.7848 198.989 22.309C200.008 22.8332 200.896 23.6039 201.582 24.5587V21.8894H205.42V35.9819C205.42 38.9662 204.691 41.1796 203.297 42.6552C201.77 44.2716 199.428 45.0426 196.42 45.0426C193.791 45.0707 191.204 44.3368 188.94 42.9204ZM201.644 29.9056V29.8392C201.636 29.1731 201.5 28.5156 201.247 27.9058C200.993 27.296 200.627 26.7463 200.169 26.2894C199.711 25.8324 199.171 25.4775 198.581 25.2457C197.99 25.0139 197.362 24.91 196.733 24.94C196.114 24.9058 195.494 25.0069 194.913 25.2371C194.332 25.4674 193.802 25.8218 193.356 26.2783C192.91 26.7348 192.558 27.2836 192.321 27.8905C192.084 28.4975 191.968 29.1495 191.979 29.8061V29.8724C191.97 30.5297 192.088 31.1821 192.325 31.7896C192.563 32.3971 192.915 32.947 193.36 33.4055C193.805 33.8641 194.333 34.2218 194.913 34.4567C195.494 34.6916 196.113 34.7988 196.733 34.7716C197.36 34.8016 197.985 34.6987 198.573 34.469C199.161 34.2392 199.7 33.8873 200.158 33.4338C200.615 32.9804 200.983 32.4346 201.238 31.8287C201.493 31.2228 201.631 30.5689 201.644 29.9056Z" fill="#90C370"/>
<path d="M208.865 43.9898L210.165 40.9724C210.851 41.3942 211.627 41.6252 212.421 41.6438C213.494 41.6438 214.16 41.1382 214.771 39.5963L207.8 21.8894H211.888L216.643 35.0369L220.982 21.8894H224.976L218.319 40.1268C216.987 43.7494 215.499 45.1007 212.836 45.1007C211.443 45.1109 210.072 44.7274 208.865 43.9898Z" fill="#90C370"/>
<g style="mix-blend-mode:multiply">
<g style="mix-blend-mode:multiply">
<path d="M53.3618 13.55C52.4713 13.5474 51.5816 13.6084 50.6988 13.7323C47.7921 14.1277 45.0003 15.1824 42.514 16.8244C38.7426 19.2912 35.8208 22.9764 34.1804 27.3358C33.2313 29.886 32.745 32.6027 32.7471 35.3437V51.2268H47.7774C53.2388 51.2136 58.4726 48.9099 62.3321 44.8202C66.1917 40.7306 68.3624 35.1885 68.3686 29.4082V13.55H53.3618ZM65.4941 29.4082C65.49 34.3823 63.6228 39.1518 60.3019 42.6714C56.9809 46.191 52.477 48.1735 47.7774 48.1844H35.6215V35.3437C35.6197 32.7594 36.1233 30.2027 37.1005 27.8344C38.0778 25.4661 39.5076 23.3376 41.3 21.5827C42.0431 20.8465 42.8479 20.1834 43.7045 19.6015C46.2557 17.8332 49.1981 16.799 52.2418 16.6006C52.6099 16.6006 53.025 16.6006 53.3618 16.6006H65.4941V29.4082Z" fill="#48B591"/>
</g>
</g>
<g style="mix-blend-mode:multiply">
<g style="mix-blend-mode:multiply">
<path d="M55.383 16.5674C55.0382 15.7131 54.6432 14.8825 54.2003 14.0805L53.9183 13.55L46.6969 0.286407L34.1651 7.92953L33.6795 8.22796C32.9103 8.69612 32.1723 9.2196 31.4708 9.79472C29.1411 11.67 27.2227 14.0569 25.8472 16.7912C25.3942 17.6962 24.9991 18.6323 24.6645 19.5932C24.453 20.2066 24.265 20.8366 24.1006 21.4749C23.3877 24.2453 23.2035 27.1383 23.5585 29.9848C23.9135 32.8314 24.8007 35.5747 26.1683 38.0544L30.2646 45.5815L31.6979 48.2093L32.7553 50.1408L33.1313 50.8371L33.3584 51.2516H34.5802L35.246 50.8537L35.6376 50.6133L39.5538 48.2093L46.6577 43.8655C50.9919 41.2146 54.2675 36.9863 55.8742 31.9686C57.4809 26.9508 57.3091 21.4859 55.3908 16.5923L55.383 16.5674ZM53.4875 29.831C52.8862 32.2117 51.8458 34.443 50.4263 36.3963C49.0068 38.3497 47.2362 39.9866 45.2166 41.2128L38.1048 45.5566L35.6219 47.0736L34.7056 47.629L34.1808 46.7089L32.7475 44.081L28.6433 36.5125C27.4713 34.3797 26.7113 32.0217 26.4074 29.5755C26.1035 27.1292 26.2619 24.6434 26.8732 22.2625C26.928 22.0304 26.9907 21.8065 27.0612 21.5744C27.3547 20.5457 27.7347 19.5469 28.1969 18.5901C29.5772 15.714 31.639 13.2661 34.1808 11.4858C34.4941 11.2703 34.8074 11.0548 35.1363 10.8641L36.883 9.79472L45.6395 4.43127L50.6992 13.6992L51.6939 15.5644C51.8819 15.9042 52.0542 16.2524 52.2265 16.6006C54.1582 20.6912 54.6068 25.3891 53.4875 29.8061V29.831Z" fill="#90C370"/>
</g>
</g>
<g style="mix-blend-mode:multiply">
<g style="mix-blend-mode:multiply">
<path d="M43.7047 19.6015C43.3675 18.6404 42.9697 17.7043 42.5142 16.7995C40.7057 13.2283 37.9937 10.2603 34.6819 8.22796L34.1963 7.92953L21.6723 0.286407L14.4509 13.55L14.1689 14.0722C13.7255 14.8726 13.3331 15.7035 12.9941 16.5591C11.0744 21.4508 10.9002 26.9143 12.504 31.9318C14.1078 36.9494 17.3801 41.1788 21.7115 43.8323L28.8233 48.1761L32.7394 50.5719L33.1154 50.804L33.789 51.2185H35.0108L35.2458 50.8537L35.6374 50.1325L36.6791 48.2093L38.1203 45.5815L42.2244 38.0544C43.7378 35.283 44.6552 32.1924 44.911 29.0028C45.1669 25.8133 44.755 22.6033 43.7047 19.6015ZM39.7259 36.5125L35.6217 44.023L34.1806 46.7089L33.6793 47.629L32.7708 47.0736L30.2801 45.5566L23.1761 41.2128C19.2684 38.8242 16.3654 34.9517 15.0563 30.381C13.7472 25.8102 14.13 20.8836 16.127 16.6006C16.2993 16.2524 16.4716 15.9042 16.6596 15.5644L17.67 13.7075L22.714 4.43127L31.4863 9.79472L33.2329 10.8641C33.554 11.063 33.8751 11.2703 34.1806 11.4858C37.9326 14.1341 40.5931 18.193 41.6228 22.8401C42.6525 27.4872 41.9744 32.3749 39.7259 36.5125Z" fill="#BDBF51"/>
</g>
</g>
<g style="mix-blend-mode:multiply">
<g style="mix-blend-mode:multiply">
<path d="M34.1804 27.3358C32.9069 23.9375 30.8497 20.9308 28.1965 18.5901C25.1949 15.9408 21.5446 14.2477 17.6698 13.7075C16.787 13.5838 15.8973 13.5228 15.0068 13.5251H0V29.4082C0.00414884 35.1935 2.17739 40.7406 6.0425 44.8314C9.90762 48.9222 15.1487 51.2224 20.6148 51.2268H35.6215V35.3436C35.6249 32.6018 35.1358 29.8843 34.1804 27.3358ZM20.6148 48.1844C15.911 48.18 11.4011 46.2004 8.07506 42.6801C4.74901 39.1599 2.87862 34.3866 2.87447 29.4082V16.5674H15.0068C15.3827 16.5674 15.79 16.5674 16.1268 16.5674C19.1667 16.767 22.1057 17.7981 24.6562 19.56C25.5079 20.1493 26.3121 20.812 27.0608 21.5412C28.8545 23.2973 30.2855 25.427 31.2641 27.7966C32.2427 30.1662 32.7476 32.7244 32.7471 35.3105V48.1844H20.6148Z" fill="#F5A069"/>
</g>
</g>
</g>
<defs>
<clipPath id="clip-logo">
<rect y="0.286407" width="225" height="50.9404" fill="white"/>
</clipPath>
</defs>
</svg>
